<svg id="Icon-OCT" xmlns="http://www.w3.org/2000/svg" xmlns:xlink="http://www.w3.org/1999/xlink" width="51.053" height="56.596" viewBox="0 0 51.053 56.596">
  <defs>
    <linearGradient id="linear-gradient" y1="0.5" x2="1" y2="0.5" gradientUnits="objectBoundingBox">
      <stop offset="0" stop-color="#00e2d1"/>
      <stop offset="1" stop-color="#25d0bd"/>
    </linearGradient>
  </defs>
  <g id="Group_3" data-name="Group 3">
    <path id="Path_14" data-name="Path 14" d="M26.442,19.822C37.682,19.822,45.4,14,50.815,14S67.6,17.113,67.6,42.027,52.3,70.6,46.347,70.6c-27.894,0-39.809-50.775-19.9-50.775Z" transform="translate(-16.552 -14)" fill="#fff"/>
    <path id="Path_15" data-name="Path 15" d="M27.144,26.937A2.437,2.437,0,1,1,29.58,24.5,2.441,2.441,0,0,1,27.144,26.937Zm0-3.25a.813.813,0,1,0,.812.812A.814.814,0,0,0,27.144,23.688Z" transform="translate(-18.881 -16.303)" fill="#92a0b5"/>
    <path id="Path_16" data-name="Path 16" d="M59.689,45.342,69.032,36a4.672,4.672,0,0,0-6.607-6.607l-9.343,9.343a4.672,4.672,0,0,0,6.607,6.607Z" transform="translate(-26.594 -18.005)" fill="url(#linear-gradient)"/>
    <path id="Path_17" data-name="Path 17" d="M63.255,65.878s-.812-2.031-4.062-2.031c-2.109,0-4.558,1.021-6.905,1.74v-.7a3.253,3.253,0,0,0-2.6-3.185L34.042,58.5l.371-1.375s-2.369-1.81-7.718-1.81V69.128h4.469l.489-1.8C34.778,68.8,42.73,72.378,46.6,72.378,51.475,72.378,63.255,65.878,63.255,65.878Zm-29.218-7.36-.549,3.211c.093.054.176.092.266.144L31.74,67Z" transform="translate(-19.449 -25.8)" fill="#f0f0ed"/>
    <path id="Path_18" data-name="Path 18" d="M29.539,55.5V69.128H26.7V55.317A20.974,20.974,0,0,1,29.539,55.5Z" transform="translate(-19.449 -25.8)" fill="#cbd2da"/>
    <path id="Path_19" data-name="Path 19" d="M65.223,69.405s-11.78,6.5-16.655,6.5c-3.883,0-11.877-3.607-14.981-5.069l.943-2.4c3.558,1.641,10.5,4.631,14.038,4.631,3.591,0,10.952-3.542,14.559-5.394a3.472,3.472,0,0,1,2.1,1.738Z" transform="translate(-21.417 -29.327)" fill="#cbd2da"/>
    <path id="Path_20" data-name="Path 20" d="M55.9,47.441a5.89,5.89,0,0,1-4.164-10.054l9.343-9.342a5.889,5.889,0,1,1,8.329,8.329l-9.342,9.343A5.846,5.846,0,0,1,55.9,47.441Zm9.343-18.685A3.427,3.427,0,0,0,62.8,29.768l-9.343,9.343a3.453,3.453,0,1,0,4.884,4.881l9.343-9.343a3.453,3.453,0,0,0-2.443-5.893Z" transform="translate(-26.107 -17.518)" fill="#040506"/>
    <path id="Path_21" data-name="Path 21" d="M59.322,37.366l1.723-1.723,6.08,6.08L65.4,43.446Z" transform="translate(-28.767 -20.181)" fill="#040506"/>
    <path id="Path_22" data-name="Path 22" d="M30.677,69.859H26.209a1.219,1.219,0,0,1-1.219-1.219V54.83a1.219,1.219,0,0,1,1.219-1.219c5.7,0,8.349,1.977,8.457,2.062A1.218,1.218,0,0,1,35.1,56.96l-3.25,12A1.217,1.217,0,0,1,30.677,69.859Zm-3.25-2.438h2.317L32.5,57.233a13.8,13.8,0,0,0-5.076-1.149Z" transform="translate(-18.962 -25.313)" fill="#040506"/>
    <path id="Path_23" data-name="Path 23" d="M48.081,76.52c-3.914,0-11.391-3.25-15.5-5.185a1.218,1.218,0,1,1,1.038-2.2c6.678,3.149,11.949,4.954,14.461,4.954,3.3,0,10.776-3.558,14.7-5.612a4.164,4.164,0,0,0-2.1-.481,17.214,17.214,0,0,0-4.9,1.157,18.846,18.846,0,0,1-5.666,1.28,29.215,29.215,0,0,1-8.133-1.7,1.219,1.219,0,0,1,.832-2.291,27.168,27.168,0,0,0,7.3,1.552,17.217,17.217,0,0,0,4.9-1.157,18.846,18.846,0,0,1,5.666-1.28c4.028,0,5.147,2.683,5.193,2.8a1.218,1.218,0,0,1-.543,1.52C64.834,70.141,53.211,76.52,48.081,76.52Z" transform="translate(-20.93 -28.724)" fill="#040506"/>
    <path id="Path_24" data-name="Path 24" d="M54.736,67.622A1.219,1.219,0,0,1,53.517,66.4v-.732a2.043,2.043,0,0,0-1.625-1.992l-15.649-3.2a1.218,1.218,0,0,1,.489-2.387l15.649,3.2a4.484,4.484,0,0,1,3.573,4.377V66.4A1.22,1.22,0,0,1,54.736,67.622Z" transform="translate(-21.898 -26.585)" fill="#040506"/>
  </g>
</svg>
